<mxfile host="app.diagrams.net" agent="Mozilla/5.0 (Windows NT 10.0; Win64; x64) AppleWebKit/537.36 (KHTML, like Gecko) Chrome/130.0.0.0 Safari/537.36" version="24.8.2">
  <diagram name="Page-1" id="kDFWu8TxQpMhyhvUcQ1z">
    <mxGraphModel dx="916" dy="1262" grid="1" gridSize="10" guides="1" tooltips="1" connect="1" arrows="1" fold="1" page="1" pageScale="1" pageWidth="850" pageHeight="1100" math="0" shadow="0">
      <root>
        <mxCell id="0" />
        <mxCell id="1" parent="0" />
        <mxCell id="_x-Qgeehc8J5LykoAp2G-11" value="" style="rounded=0;whiteSpace=wrap;html=1;fillColor=none;" vertex="1" parent="1">
          <mxGeometry x="77.5" y="330" width="730" height="530" as="geometry" />
        </mxCell>
        <mxCell id="_x-Qgeehc8J5LykoAp2G-35" value="" style="whiteSpace=wrap;html=1;aspect=fixed;fillColor=none;" vertex="1" parent="1">
          <mxGeometry x="80" y="1070" width="730" height="730" as="geometry" />
        </mxCell>
        <mxCell id="_x-Qgeehc8J5LykoAp2G-3" style="rounded=0;orthogonalLoop=1;jettySize=auto;html=1;exitX=0.13;exitY=0.77;exitDx=0;exitDy=0;exitPerimeter=0;entryX=1;entryY=0;entryDx=0;entryDy=0;shape=link;" edge="1" parent="1" source="_x-Qgeehc8J5LykoAp2G-1" target="_x-Qgeehc8J5LykoAp2G-2">
          <mxGeometry relative="1" as="geometry" />
        </mxCell>
        <mxCell id="_x-Qgeehc8J5LykoAp2G-1" value="Internet" style="ellipse;shape=cloud;whiteSpace=wrap;html=1;" vertex="1" parent="1">
          <mxGeometry x="625" y="20" width="160" height="130" as="geometry" />
        </mxCell>
        <mxCell id="_x-Qgeehc8J5LykoAp2G-2" value="Gateway Router&amp;nbsp;&lt;div&gt;Internal IP: 10.0.0.1&lt;/div&gt;" style="rhombus;whiteSpace=wrap;html=1;" vertex="1" parent="1">
          <mxGeometry x="60" width="260" height="230" as="geometry" />
        </mxCell>
        <mxCell id="_x-Qgeehc8J5LykoAp2G-8" value="North" style="text;html=1;align=center;verticalAlign=middle;resizable=0;points=[];autosize=1;strokeColor=none;fillColor=none;" vertex="1" parent="1">
          <mxGeometry x="5" y="330" width="50" height="30" as="geometry" />
        </mxCell>
        <mxCell id="_x-Qgeehc8J5LykoAp2G-10" value="South&amp;nbsp;" style="text;html=1;align=center;verticalAlign=middle;resizable=0;points=[];autosize=1;strokeColor=none;fillColor=none;" vertex="1" parent="1">
          <mxGeometry y="830" width="60" height="30" as="geometry" />
        </mxCell>
        <mxCell id="_x-Qgeehc8J5LykoAp2G-12" value="" style="endArrow=classic;startArrow=classic;html=1;rounded=0;exitX=1.022;exitY=1.204;exitDx=0;exitDy=0;exitPerimeter=0;" edge="1" parent="1" source="_x-Qgeehc8J5LykoAp2G-10">
          <mxGeometry width="50" height="50" relative="1" as="geometry">
            <mxPoint x="260" y="470" as="sourcePoint" />
            <mxPoint x="60" y="340" as="targetPoint" />
          </mxGeometry>
        </mxCell>
        <mxCell id="_x-Qgeehc8J5LykoAp2G-15" value="Mail Server&amp;nbsp;&lt;div&gt;Internal IP: 10.0.0.2&lt;/div&gt;" style="ellipse;whiteSpace=wrap;html=1;" vertex="1" parent="1">
          <mxGeometry x="160" y="460" width="120" height="80" as="geometry" />
        </mxCell>
        <mxCell id="_x-Qgeehc8J5LykoAp2G-17" value="Web Server 1&lt;div&gt;Internal IP: 10.0.0.4&lt;/div&gt;" style="ellipse;whiteSpace=wrap;html=1;" vertex="1" parent="1">
          <mxGeometry x="305" y="640" width="95" height="70" as="geometry" />
        </mxCell>
        <mxCell id="_x-Qgeehc8J5LykoAp2G-18" value="Web Server 2&lt;div&gt;Internal IP: 10.0.0.5&lt;/div&gt;" style="ellipse;whiteSpace=wrap;html=1;" vertex="1" parent="1">
          <mxGeometry x="440" y="640" width="95" height="70" as="geometry" />
        </mxCell>
        <mxCell id="_x-Qgeehc8J5LykoAp2G-19" value="Web Server 3&lt;div&gt;Internal IP: 10.0.0.6&lt;/div&gt;" style="ellipse;whiteSpace=wrap;html=1;" vertex="1" parent="1">
          <mxGeometry x="580" y="640" width="95" height="70" as="geometry" />
        </mxCell>
        <mxCell id="_x-Qgeehc8J5LykoAp2G-20" value="Load Balancer&amp;nbsp;&lt;div&gt;Internal IP: 10.0.0.3&lt;/div&gt;" style="shape=trapezoid;perimeter=trapezoidPerimeter;whiteSpace=wrap;html=1;fixedSize=1;" vertex="1" parent="1">
          <mxGeometry x="427.5" y="520" width="132.5" height="70" as="geometry" />
        </mxCell>
        <mxCell id="_x-Qgeehc8J5LykoAp2G-25" value="" style="endArrow=none;html=1;rounded=0;exitX=0.5;exitY=0;exitDx=0;exitDy=0;" edge="1" parent="1" source="_x-Qgeehc8J5LykoAp2G-18" target="_x-Qgeehc8J5LykoAp2G-20">
          <mxGeometry width="50" height="50" relative="1" as="geometry">
            <mxPoint x="470" y="640" as="sourcePoint" />
            <mxPoint x="520" y="590" as="targetPoint" />
          </mxGeometry>
        </mxCell>
        <mxCell id="_x-Qgeehc8J5LykoAp2G-26" value="" style="endArrow=none;html=1;rounded=0;entryX=0.5;entryY=0;entryDx=0;entryDy=0;exitX=1;exitY=1;exitDx=0;exitDy=0;" edge="1" parent="1" source="_x-Qgeehc8J5LykoAp2G-20" target="_x-Qgeehc8J5LykoAp2G-19">
          <mxGeometry width="50" height="50" relative="1" as="geometry">
            <mxPoint x="430" y="490" as="sourcePoint" />
            <mxPoint x="480" y="440" as="targetPoint" />
          </mxGeometry>
        </mxCell>
        <mxCell id="_x-Qgeehc8J5LykoAp2G-27" value="" style="endArrow=none;html=1;rounded=0;exitX=0.5;exitY=0;exitDx=0;exitDy=0;entryX=0;entryY=1;entryDx=0;entryDy=0;" edge="1" parent="1" source="_x-Qgeehc8J5LykoAp2G-17" target="_x-Qgeehc8J5LykoAp2G-20">
          <mxGeometry width="50" height="50" relative="1" as="geometry">
            <mxPoint x="430" y="490" as="sourcePoint" />
            <mxPoint x="480" y="440" as="targetPoint" />
          </mxGeometry>
        </mxCell>
        <mxCell id="_x-Qgeehc8J5LykoAp2G-28" value="" style="endArrow=none;html=1;rounded=0;exitX=0.5;exitY=0;exitDx=0;exitDy=0;entryX=1;entryY=1;entryDx=0;entryDy=0;" edge="1" parent="1" source="_x-Qgeehc8J5LykoAp2G-86" target="_x-Qgeehc8J5LykoAp2G-2">
          <mxGeometry width="50" height="50" relative="1" as="geometry">
            <mxPoint x="430" y="490" as="sourcePoint" />
            <mxPoint x="480" y="440" as="targetPoint" />
          </mxGeometry>
        </mxCell>
        <mxCell id="_x-Qgeehc8J5LykoAp2G-29" value="VPN Proxy&amp;nbsp;&lt;div&gt;Internal IP: 10.0.0.7&lt;/div&gt;" style="shape=hexagon;perimeter=hexagonPerimeter2;whiteSpace=wrap;html=1;fixedSize=1;" vertex="1" parent="1">
          <mxGeometry x="645" y="450" width="120" height="80" as="geometry" />
        </mxCell>
        <mxCell id="_x-Qgeehc8J5LykoAp2G-31" value="DMZ&amp;nbsp;" style="rounded=0;whiteSpace=wrap;html=1;" vertex="1" parent="1">
          <mxGeometry x="80" y="800" width="150" height="60" as="geometry" />
        </mxCell>
        <mxCell id="_x-Qgeehc8J5LykoAp2G-42" value="Guest WiFI Subnet&amp;nbsp;&lt;div&gt;Unique IP: 10.0.1.2&lt;/div&gt;" style="rounded=0;whiteSpace=wrap;html=1;" vertex="1" parent="1">
          <mxGeometry x="140" y="1241.25" width="160" height="367.5" as="geometry" />
        </mxCell>
        <mxCell id="_x-Qgeehc8J5LykoAp2G-47" value="Engineering Subnet&amp;nbsp;&lt;div&gt;Unique IP: 10.0.3.4&lt;/div&gt;" style="rounded=0;whiteSpace=wrap;html=1;" vertex="1" parent="1">
          <mxGeometry x="585" y="1241.25" width="160" height="467.5" as="geometry" />
        </mxCell>
        <mxCell id="_x-Qgeehc8J5LykoAp2G-48" value="Management Subnet&amp;nbsp;&lt;div&gt;Unique IP: 10.0.2.3&lt;/div&gt;" style="rounded=0;whiteSpace=wrap;html=1;" vertex="1" parent="1">
          <mxGeometry x="362.5" y="1241.25" width="160" height="367.5" as="geometry" />
        </mxCell>
        <mxCell id="_x-Qgeehc8J5LykoAp2G-49" value="Access Point&amp;nbsp;" style="rhombus;whiteSpace=wrap;html=1;" vertex="1" parent="1">
          <mxGeometry x="160" y="1260" width="100" height="90" as="geometry" />
        </mxCell>
        <mxCell id="_x-Qgeehc8J5LykoAp2G-50" style="edgeStyle=none;rounded=0;orthogonalLoop=1;jettySize=auto;html=1;exitX=0;exitY=1;exitDx=0;exitDy=0;" edge="1" parent="1" source="_x-Qgeehc8J5LykoAp2G-49" target="_x-Qgeehc8J5LykoAp2G-49">
          <mxGeometry relative="1" as="geometry" />
        </mxCell>
        <mxCell id="_x-Qgeehc8J5LykoAp2G-53" value="File Server&lt;div&gt;Stores finance/HR records&lt;/div&gt;" style="ellipse;whiteSpace=wrap;html=1;" vertex="1" parent="1">
          <mxGeometry x="385" y="1270" width="115" height="70" as="geometry" />
        </mxCell>
        <mxCell id="_x-Qgeehc8J5LykoAp2G-54" value="File Server&lt;div&gt;Stores sensitive company tradecraft&lt;/div&gt;" style="ellipse;whiteSpace=wrap;html=1;" vertex="1" parent="1">
          <mxGeometry x="605" y="1360" width="120" height="80" as="geometry" />
        </mxCell>
        <mxCell id="_x-Qgeehc8J5LykoAp2G-55" value="Backend database" style="shape=cylinder3;whiteSpace=wrap;html=1;boundedLbl=1;backgroundOutline=1;size=15;" vertex="1" parent="1">
          <mxGeometry x="675" y="1260" width="60" height="80" as="geometry" />
        </mxCell>
        <mxCell id="_x-Qgeehc8J5LykoAp2G-56" value="NAT&amp;nbsp;&lt;div&gt;External IP: 75.174.5.100&lt;/div&gt;" style="ellipse;whiteSpace=wrap;html=1;aspect=fixed;" vertex="1" parent="1">
          <mxGeometry x="150" y="130" width="80" height="80" as="geometry" />
        </mxCell>
        <mxCell id="_x-Qgeehc8J5LykoAp2G-60" style="rounded=0;orthogonalLoop=1;jettySize=auto;html=1;exitX=1;exitY=0.5;exitDx=0;exitDy=0;entryX=0;entryY=0.5;entryDx=0;entryDy=0;shape=link;" edge="1" parent="1" source="_x-Qgeehc8J5LykoAp2G-58" target="_x-Qgeehc8J5LykoAp2G-59">
          <mxGeometry relative="1" as="geometry" />
        </mxCell>
        <mxCell id="_x-Qgeehc8J5LykoAp2G-58" value="Honeypot&lt;div&gt;IP: 10.0.0.8&lt;/div&gt;" style="shape=step;perimeter=stepPerimeter;whiteSpace=wrap;html=1;fixedSize=1;" vertex="1" parent="1">
          <mxGeometry x="130" y="630" width="120" height="80" as="geometry" />
        </mxCell>
        <mxCell id="_x-Qgeehc8J5LykoAp2G-59" value="NSM&lt;div&gt;Used as a network sniffer to collect traffic from the honeypot covertly.&amp;nbsp;&lt;/div&gt;" style="shape=process;whiteSpace=wrap;html=1;backgroundOutline=1;" vertex="1" parent="1">
          <mxGeometry x="590" y="760" width="210" height="90" as="geometry" />
        </mxCell>
        <mxCell id="_x-Qgeehc8J5LykoAp2G-76" value="" style="endArrow=none;html=1;rounded=0;exitX=0.5;exitY=0;exitDx=0;exitDy=0;entryX=1;entryY=1;entryDx=0;entryDy=0;" edge="1" parent="1" source="_x-Qgeehc8J5LykoAp2G-20" target="_x-Qgeehc8J5LykoAp2G-77">
          <mxGeometry width="50" height="50" relative="1" as="geometry">
            <mxPoint x="494" y="520" as="sourcePoint" />
            <mxPoint x="255" y="173" as="targetPoint" />
          </mxGeometry>
        </mxCell>
        <mxCell id="_x-Qgeehc8J5LykoAp2G-77" value="Switch" style="verticalLabelPosition=bottom;verticalAlign=top;html=1;shape=mxgraph.basic.frame;dx=10;whiteSpace=wrap;" vertex="1" parent="1">
          <mxGeometry x="300" y="410" width="260" height="60" as="geometry" />
        </mxCell>
        <mxCell id="_x-Qgeehc8J5LykoAp2G-84" value="" style="endArrow=none;html=1;rounded=0;exitX=1;exitY=0;exitDx=0;exitDy=0;entryX=0;entryY=0.5;entryDx=0;entryDy=0;entryPerimeter=0;" edge="1" parent="1" source="_x-Qgeehc8J5LykoAp2G-15" target="_x-Qgeehc8J5LykoAp2G-77">
          <mxGeometry width="50" height="50" relative="1" as="geometry">
            <mxPoint x="380" y="580" as="sourcePoint" />
            <mxPoint x="430" y="530" as="targetPoint" />
          </mxGeometry>
        </mxCell>
        <mxCell id="_x-Qgeehc8J5LykoAp2G-85" value="" style="endArrow=none;html=1;rounded=0;exitX=0;exitY=0.5;exitDx=0;exitDy=0;entryX=1;entryY=0.5;entryDx=0;entryDy=0;entryPerimeter=0;" edge="1" parent="1" source="_x-Qgeehc8J5LykoAp2G-29" target="_x-Qgeehc8J5LykoAp2G-77">
          <mxGeometry width="50" height="50" relative="1" as="geometry">
            <mxPoint x="380" y="580" as="sourcePoint" />
            <mxPoint x="430" y="530" as="targetPoint" />
          </mxGeometry>
        </mxCell>
        <mxCell id="_x-Qgeehc8J5LykoAp2G-87" value="" style="endArrow=none;html=1;rounded=0;exitX=0.5;exitY=0;exitDx=0;exitDy=0;entryX=1;entryY=1;entryDx=0;entryDy=0;" edge="1" parent="1" source="_x-Qgeehc8J5LykoAp2G-77" target="_x-Qgeehc8J5LykoAp2G-86">
          <mxGeometry width="50" height="50" relative="1" as="geometry">
            <mxPoint x="430" y="410" as="sourcePoint" />
            <mxPoint x="255" y="173" as="targetPoint" />
          </mxGeometry>
        </mxCell>
        <mxCell id="_x-Qgeehc8J5LykoAp2G-86" value="" style="sketch=0;aspect=fixed;pointerEvents=1;shadow=0;dashed=0;html=1;strokeColor=none;labelPosition=center;verticalLabelPosition=bottom;verticalAlign=top;align=center;fillColor=#00188D;shape=mxgraph.mscae.enterprise.firewall" vertex="1" parent="1">
          <mxGeometry x="270" y="220" width="84.09" height="74" as="geometry" />
        </mxCell>
        <mxCell id="_x-Qgeehc8J5LykoAp2G-91" value="" style="endArrow=none;html=1;rounded=0;entryX=0.145;entryY=0;entryDx=0;entryDy=4.35;entryPerimeter=0;exitX=0.5;exitY=1;exitDx=0;exitDy=0;exitPerimeter=0;" edge="1" parent="1" source="_x-Qgeehc8J5LykoAp2G-102" target="_x-Qgeehc8J5LykoAp2G-55">
          <mxGeometry width="50" height="50" relative="1" as="geometry">
            <mxPoint x="510" y="780" as="sourcePoint" />
            <mxPoint x="560" y="730" as="targetPoint" />
          </mxGeometry>
        </mxCell>
        <mxCell id="_x-Qgeehc8J5LykoAp2G-92" value="" style="endArrow=none;html=1;rounded=0;entryX=0.5;entryY=1;entryDx=0;entryDy=0;exitX=0.5;exitY=0;exitDx=0;exitDy=0;exitPerimeter=0;" edge="1" parent="1" source="_x-Qgeehc8J5LykoAp2G-102" target="_x-Qgeehc8J5LykoAp2G-18">
          <mxGeometry width="50" height="50" relative="1" as="geometry">
            <mxPoint x="510" y="780" as="sourcePoint" />
            <mxPoint x="560" y="730" as="targetPoint" />
          </mxGeometry>
        </mxCell>
        <mxCell id="_x-Qgeehc8J5LykoAp2G-93" value="" style="endArrow=none;html=1;rounded=0;entryX=0.5;entryY=1;entryDx=0;entryDy=0;exitX=0.5;exitY=0;exitDx=0;exitDy=0;exitPerimeter=0;" edge="1" parent="1" source="_x-Qgeehc8J5LykoAp2G-102" target="_x-Qgeehc8J5LykoAp2G-19">
          <mxGeometry width="50" height="50" relative="1" as="geometry">
            <mxPoint x="510" y="780" as="sourcePoint" />
            <mxPoint x="580" y="730" as="targetPoint" />
          </mxGeometry>
        </mxCell>
        <mxCell id="_x-Qgeehc8J5LykoAp2G-94" value="NIDS (Network Intrusion Detection Software)&lt;div&gt;continually monitors the entire subnet for signs of network intrusion&lt;/div&gt;" style="shape=process;whiteSpace=wrap;html=1;backgroundOutline=1;" vertex="1" parent="1">
          <mxGeometry x="90" y="340" width="200" height="100" as="geometry" />
        </mxCell>
        <mxCell id="_x-Qgeehc8J5LykoAp2G-96" value="" style="endArrow=none;html=1;rounded=0;entryX=1;entryY=0;entryDx=0;entryDy=0;exitX=0;exitY=0;exitDx=65;exitDy=0;exitPerimeter=0;" edge="1" parent="1" source="_x-Qgeehc8J5LykoAp2G-88" target="_x-Qgeehc8J5LykoAp2G-94">
          <mxGeometry width="50" height="50" relative="1" as="geometry">
            <mxPoint x="510" y="780" as="sourcePoint" />
            <mxPoint x="560" y="730" as="targetPoint" />
          </mxGeometry>
        </mxCell>
        <mxCell id="_x-Qgeehc8J5LykoAp2G-97" value="HIDS (Host-Based Intrusion Detection Software)&lt;div&gt;continually monitors the specific server device for signs of compromise&lt;/div&gt;" style="shape=process;whiteSpace=wrap;html=1;backgroundOutline=1;" vertex="1" parent="1">
          <mxGeometry x="590" y="1570" width="150" height="130" as="geometry" />
        </mxCell>
        <mxCell id="_x-Qgeehc8J5LykoAp2G-41" value="East" style="text;strokeColor=none;align=center;fillColor=none;html=1;verticalAlign=middle;whiteSpace=wrap;rounded=0;" vertex="1" parent="1">
          <mxGeometry x="750" y="1040" width="60" height="30" as="geometry" />
        </mxCell>
        <mxCell id="_x-Qgeehc8J5LykoAp2G-101" value="" style="endArrow=classic;startArrow=classic;html=1;rounded=0;" edge="1" parent="1" source="_x-Qgeehc8J5LykoAp2G-41" target="_x-Qgeehc8J5LykoAp2G-39">
          <mxGeometry width="50" height="50" relative="1" as="geometry">
            <mxPoint x="760" y="916" as="sourcePoint" />
            <mxPoint x="80" y="930" as="targetPoint" />
            <Array as="points" />
          </mxGeometry>
        </mxCell>
        <mxCell id="_x-Qgeehc8J5LykoAp2G-39" value="West" style="text;html=1;align=center;verticalAlign=middle;resizable=0;points=[];autosize=1;strokeColor=none;fillColor=none;" vertex="1" parent="1">
          <mxGeometry x="77.5" y="1040" width="50" height="30" as="geometry" />
        </mxCell>
        <mxCell id="_x-Qgeehc8J5LykoAp2G-102" value="Firewall for East-West Segmentation" style="sketch=0;aspect=fixed;pointerEvents=1;shadow=0;dashed=0;html=1;strokeColor=none;labelPosition=center;verticalLabelPosition=bottom;verticalAlign=top;align=center;fillColor=#00188D;shape=mxgraph.mscae.enterprise.firewall" vertex="1" parent="1">
          <mxGeometry x="390" y="930" width="90" height="79.2" as="geometry" />
        </mxCell>
        <mxCell id="_x-Qgeehc8J5LykoAp2G-103" value="" style="endArrow=none;html=1;rounded=0;entryX=1;entryY=0;entryDx=0;entryDy=0;exitX=0;exitY=0;exitDx=65;exitDy=0;exitPerimeter=0;" edge="1" parent="1" source="_x-Qgeehc8J5LykoAp2G-77" target="_x-Qgeehc8J5LykoAp2G-88">
          <mxGeometry width="50" height="50" relative="1" as="geometry">
            <mxPoint x="365" y="410" as="sourcePoint" />
            <mxPoint x="290" y="340" as="targetPoint" />
          </mxGeometry>
        </mxCell>
        <mxCell id="_x-Qgeehc8J5LykoAp2G-88" value="Firewall for North-South segmentation" style="text;html=1;align=center;verticalAlign=middle;resizable=0;points=[];autosize=1;strokeColor=none;fillColor=none;" vertex="1" parent="1">
          <mxGeometry x="132.49999999999997" y="300" width="230" height="30" as="geometry" />
        </mxCell>
        <mxCell id="_x-Qgeehc8J5LykoAp2G-105" value="" style="endArrow=none;html=1;rounded=0;exitX=0.5;exitY=0;exitDx=0;exitDy=0;exitPerimeter=0;" edge="1" parent="1" source="_x-Qgeehc8J5LykoAp2G-102" target="_x-Qgeehc8J5LykoAp2G-17">
          <mxGeometry width="50" height="50" relative="1" as="geometry">
            <mxPoint x="480" y="1340" as="sourcePoint" />
            <mxPoint x="530" y="1290" as="targetPoint" />
          </mxGeometry>
        </mxCell>
      </root>
    </mxGraphModel>
  </diagram>
</mxfile>
